<svg width="844" height="151" viewBox="0 0 844 151" fill="none" xmlns="http://www.w3.org/2000/svg">
<mask id="path-1-outside-1_8877_17195" maskUnits="userSpaceOnUse" x="0.847839" y="0.560547" width="844" height="150" fill="black">
<rect fill="white" x="0.847839" y="0.560547" width="844" height="150"/>
<path d="M97.7281 45.0613V144.582H81.0069L80.8055 130.48C76.642 135.718 71.5383 139.68 65.4945 142.366C59.585 145.052 53.0712 146.396 45.9529 146.396C33.1938 146.396 22.9865 142.232 15.331 133.905C7.67558 125.578 3.84784 114.363 3.84784 100.261V45.0613H22.5836V99.0525C22.5836 108.588 24.8668 115.975 29.4332 121.213C33.9997 126.451 40.3792 129.07 48.5719 129.07C57.5704 129.07 64.8901 126.182 70.531 120.407C76.1719 114.498 78.9923 107.044 78.9923 98.0452V45.0613H97.7281Z"/>
<path d="M163.714 146.798C146.926 146.798 132.018 141.695 118.99 131.487L128.459 117.587C132.756 121.482 138.061 124.504 144.374 126.652C150.686 128.801 157.267 129.876 164.117 129.876C171.235 129.876 176.876 128.667 181.04 126.25C185.203 123.832 187.285 120.542 187.285 116.378C187.285 112.349 185.337 109.26 181.442 107.111C177.682 104.962 171.302 103.35 162.304 102.276C135.577 99.0525 122.213 89.1138 122.213 72.4598C122.213 63.5956 126.108 56.4773 133.898 51.1051C141.688 45.5985 151.895 42.8452 164.52 42.8452C179.428 42.8452 192.456 46.8073 203.603 54.7313L194.94 68.4306C186.21 62.2525 176.339 59.1634 165.326 59.1634C157.267 59.1634 151.089 60.305 146.791 62.5883C142.628 64.7372 140.546 67.9605 140.546 72.2583C140.546 76.0189 142.292 78.9737 145.784 81.1226C149.41 83.1372 155.454 84.6817 163.915 85.7561C178.824 87.6364 189.501 90.9941 195.948 95.8291C202.529 100.664 205.819 107.581 205.819 116.579C205.819 122.489 204.073 127.727 200.581 132.293C197.089 136.86 192.12 140.419 185.673 142.971C179.361 145.523 172.041 146.798 163.714 146.798Z"/>
<path d="M270.91 43.0467C286.892 43.0467 299.382 47.6802 308.381 56.9474C317.38 66.2145 321.879 79.0408 321.879 95.4262C321.879 98.3809 321.812 100.664 321.677 102.276H239.28C240.22 110.871 243.712 117.654 249.756 122.623C255.934 127.458 263.791 129.876 273.327 129.876C279.371 129.876 285.146 128.801 290.653 126.652C296.293 124.504 300.591 121.683 303.546 118.191L315.634 129.674C310.933 135.181 304.755 139.479 297.099 142.568C289.578 145.657 281.52 147.201 272.924 147.201C262.314 147.201 252.98 145.052 244.921 140.755C236.997 136.457 230.819 130.346 226.387 122.422C222.089 114.498 219.94 105.298 219.94 94.8218C219.94 84.7488 222.089 75.8175 226.387 68.0277C230.685 60.1036 236.661 53.9926 244.317 49.6948C251.972 45.2627 260.837 43.0467 270.91 43.0467ZM271.514 59.7678C262.784 59.7678 255.599 62.1182 249.958 66.8189C244.451 71.3853 240.959 77.8992 239.482 86.3605H303.949C303.143 78.3021 299.853 71.8554 294.077 67.0204C288.302 62.1853 280.781 59.7678 271.514 59.7678Z"/>
<path d="M391.6 43.2481C396.3 43.2481 400.8 43.9868 405.097 45.4642C409.395 46.8072 413.022 48.6875 415.976 51.1051L407.515 66.8189C402.143 63.327 396.502 61.581 390.592 61.581C381.997 61.581 375.08 64.7372 369.842 71.0496C364.738 77.2277 362.186 85.4204 362.186 95.6277V144.582H343.451V45.0613H360.172L360.373 61.7824C364.268 55.47 368.768 50.8364 373.871 47.8817C379.109 44.7927 385.019 43.2481 391.6 43.2481Z"/>
<path d="M467.478 146.798C450.689 146.798 435.781 141.695 422.753 131.487L432.222 117.587C436.52 121.482 441.825 124.504 448.137 126.652C454.45 128.801 461.031 129.876 467.88 129.876C474.999 129.876 480.64 128.667 484.803 126.25C488.967 123.832 491.048 120.542 491.048 116.378C491.048 112.349 489.101 109.26 485.206 107.111C481.445 104.962 475.066 103.35 466.067 102.276C439.34 99.0525 425.977 89.1138 425.977 72.4598C425.977 63.5956 429.872 56.4773 437.661 51.1051C445.451 45.5985 455.659 42.8452 468.283 42.8452C483.191 42.8452 496.219 46.8073 507.367 54.7313L498.704 68.4306C489.974 62.2525 480.102 59.1634 469.089 59.1634C461.031 59.1634 454.853 60.305 450.555 62.5883C446.391 64.7372 444.31 67.9605 444.31 72.2583C444.31 76.0189 446.056 78.9737 449.548 81.1226C453.174 83.1372 459.218 84.6817 467.679 85.7561C482.587 87.6364 493.264 90.9941 499.711 95.8291C506.292 100.664 509.583 107.581 509.583 116.579C509.583 122.489 507.837 127.727 504.345 132.293C500.853 136.86 495.883 140.419 489.437 142.971C483.124 145.523 475.805 146.798 467.478 146.798Z"/>
<path d="M628.261 3.56055V144.582H611.54L611.339 129.876C607.444 135.114 602.139 139.277 595.423 142.366C588.842 145.321 581.456 146.798 573.263 146.798C563.727 146.798 555.199 144.65 547.677 140.352C540.291 136.054 534.448 130.01 530.15 122.22C525.987 114.296 523.905 105.163 523.905 94.8218C523.905 84.4802 525.987 75.4145 530.15 67.6248C534.448 59.7007 540.291 53.5897 547.677 49.2919C555.199 44.9941 563.727 42.8452 573.263 42.8452C580.918 42.8452 587.902 44.1211 594.215 46.6729C600.527 49.2248 605.631 52.851 609.526 57.5518V3.56055H628.261ZM576.083 129.473C582.53 129.473 588.305 127.996 593.409 125.041C598.513 122.086 602.475 117.99 605.295 112.752C608.115 107.514 609.526 101.537 609.526 94.8218C609.526 88.1065 608.115 82.1299 605.295 76.8919C602.475 71.6539 598.513 67.5576 593.409 64.6029C588.305 61.6481 582.53 60.1707 576.083 60.1707C569.637 60.1707 563.861 61.6481 558.758 64.6029C553.654 67.5576 549.692 71.6539 546.872 76.8919C544.051 82.1299 542.641 88.1065 542.641 94.8218C542.641 101.537 544.051 107.514 546.872 112.752C549.692 117.99 553.654 122.086 558.758 125.041C563.861 127.996 569.637 129.473 576.083 129.473Z"/>
<path d="M703.181 146.798C692.839 146.798 683.639 144.582 675.581 140.15C667.657 135.584 661.479 129.339 657.046 121.415C652.749 113.49 650.6 104.626 650.6 94.8218C650.6 85.0175 652.749 76.1532 657.046 68.2291C661.479 60.305 667.657 54.1269 675.581 49.6948C683.639 45.1284 692.839 42.8452 703.181 42.8452C713.522 42.8452 722.655 45.1284 730.579 49.6948C738.503 54.1269 744.614 60.305 748.912 68.2291C753.344 76.1532 755.56 85.0175 755.56 94.8218C755.56 104.626 753.344 113.49 748.912 121.415C744.614 129.339 738.503 135.584 730.579 140.15C722.655 144.582 713.522 146.798 703.181 146.798ZM703.181 129.473C709.762 129.473 715.604 127.928 720.708 124.839C725.811 121.75 729.773 117.587 732.594 112.349C735.414 106.977 736.825 101.134 736.825 94.8218C736.825 88.5094 735.414 82.7342 732.594 77.4963C729.773 72.124 725.811 67.8934 720.708 64.8043C715.604 61.7153 709.762 60.1707 703.181 60.1707C696.465 60.1707 690.556 61.7153 685.452 64.8043C680.349 67.8934 676.387 72.124 673.566 77.4963C670.746 82.7342 669.336 88.5094 669.336 94.8218C669.336 101.134 670.746 106.977 673.566 112.349C676.387 117.587 680.349 121.75 685.452 124.839C690.556 127.928 696.465 129.473 703.181 129.473Z"/>
<path d="M840.137 141.359C833.153 144.448 826.102 145.993 818.984 145.993C808.642 145.993 800.785 143.105 795.413 137.33C790.175 131.42 787.556 122.825 787.556 111.543V61.3795H768.015V45.0613H787.556V18.2671L806.09 16.2525V45.0613H836.31V61.3795H806.09V111.543C806.09 117.318 807.299 121.683 809.717 124.638C812.134 127.593 815.962 129.07 821.2 129.07C825.229 129.07 829.728 127.996 834.698 125.847L840.137 141.359Z"/>
</mask>
<path d="M97.7281 45.0613V144.582H81.0069L80.8055 130.48C76.642 135.718 71.5383 139.68 65.4945 142.366C59.585 145.052 53.0712 146.396 45.9529 146.396C33.1938 146.396 22.9865 142.232 15.331 133.905C7.67558 125.578 3.84784 114.363 3.84784 100.261V45.0613H22.5836V99.0525C22.5836 108.588 24.8668 115.975 29.4332 121.213C33.9997 126.451 40.3792 129.07 48.5719 129.07C57.5704 129.07 64.8901 126.182 70.531 120.407C76.1719 114.498 78.9923 107.044 78.9923 98.0452V45.0613H97.7281Z" fill="#20025B"/>
<path d="M163.714 146.798C146.926 146.798 132.018 141.695 118.99 131.487L128.459 117.587C132.756 121.482 138.061 124.504 144.374 126.652C150.686 128.801 157.267 129.876 164.117 129.876C171.235 129.876 176.876 128.667 181.04 126.25C185.203 123.832 187.285 120.542 187.285 116.378C187.285 112.349 185.337 109.26 181.442 107.111C177.682 104.962 171.302 103.35 162.304 102.276C135.577 99.0525 122.213 89.1138 122.213 72.4598C122.213 63.5956 126.108 56.4773 133.898 51.1051C141.688 45.5985 151.895 42.8452 164.52 42.8452C179.428 42.8452 192.456 46.8073 203.603 54.7313L194.94 68.4306C186.21 62.2525 176.339 59.1634 165.326 59.1634C157.267 59.1634 151.089 60.305 146.791 62.5883C142.628 64.7372 140.546 67.9605 140.546 72.2583C140.546 76.0189 142.292 78.9737 145.784 81.1226C149.41 83.1372 155.454 84.6817 163.915 85.7561C178.824 87.6364 189.501 90.9941 195.948 95.8291C202.529 100.664 205.819 107.581 205.819 116.579C205.819 122.489 204.073 127.727 200.581 132.293C197.089 136.86 192.12 140.419 185.673 142.971C179.361 145.523 172.041 146.798 163.714 146.798Z" fill="#20025B"/>
<path d="M270.91 43.0467C286.892 43.0467 299.382 47.6802 308.381 56.9474C317.38 66.2145 321.879 79.0408 321.879 95.4262C321.879 98.3809 321.812 100.664 321.677 102.276H239.28C240.22 110.871 243.712 117.654 249.756 122.623C255.934 127.458 263.791 129.876 273.327 129.876C279.371 129.876 285.146 128.801 290.653 126.652C296.293 124.504 300.591 121.683 303.546 118.191L315.634 129.674C310.933 135.181 304.755 139.479 297.099 142.568C289.578 145.657 281.52 147.201 272.924 147.201C262.314 147.201 252.98 145.052 244.921 140.755C236.997 136.457 230.819 130.346 226.387 122.422C222.089 114.498 219.94 105.298 219.94 94.8218C219.94 84.7488 222.089 75.8175 226.387 68.0277C230.685 60.1036 236.661 53.9926 244.317 49.6948C251.972 45.2627 260.837 43.0467 270.91 43.0467ZM271.514 59.7678C262.784 59.7678 255.599 62.1182 249.958 66.8189C244.451 71.3853 240.959 77.8992 239.482 86.3605H303.949C303.143 78.3021 299.853 71.8554 294.077 67.0204C288.302 62.1853 280.781 59.7678 271.514 59.7678Z" fill="#20025B"/>
<path d="M391.6 43.2481C396.3 43.2481 400.8 43.9868 405.097 45.4642C409.395 46.8072 413.022 48.6875 415.976 51.1051L407.515 66.8189C402.143 63.327 396.502 61.581 390.592 61.581C381.997 61.581 375.08 64.7372 369.842 71.0496C364.738 77.2277 362.186 85.4204 362.186 95.6277V144.582H343.451V45.0613H360.172L360.373 61.7824C364.268 55.47 368.768 50.8364 373.871 47.8817C379.109 44.7927 385.019 43.2481 391.6 43.2481Z" fill="#20025B"/>
<path d="M467.478 146.798C450.689 146.798 435.781 141.695 422.753 131.487L432.222 117.587C436.52 121.482 441.825 124.504 448.137 126.652C454.45 128.801 461.031 129.876 467.88 129.876C474.999 129.876 480.64 128.667 484.803 126.25C488.967 123.832 491.048 120.542 491.048 116.378C491.048 112.349 489.101 109.26 485.206 107.111C481.445 104.962 475.066 103.35 466.067 102.276C439.34 99.0525 425.977 89.1138 425.977 72.4598C425.977 63.5956 429.872 56.4773 437.661 51.1051C445.451 45.5985 455.659 42.8452 468.283 42.8452C483.191 42.8452 496.219 46.8073 507.367 54.7313L498.704 68.4306C489.974 62.2525 480.102 59.1634 469.089 59.1634C461.031 59.1634 454.853 60.305 450.555 62.5883C446.391 64.7372 444.31 67.9605 444.31 72.2583C444.31 76.0189 446.056 78.9737 449.548 81.1226C453.174 83.1372 459.218 84.6817 467.679 85.7561C482.587 87.6364 493.264 90.9941 499.711 95.8291C506.292 100.664 509.583 107.581 509.583 116.579C509.583 122.489 507.837 127.727 504.345 132.293C500.853 136.86 495.883 140.419 489.437 142.971C483.124 145.523 475.805 146.798 467.478 146.798Z" fill="#20025B"/>
<path d="M628.261 3.56055V144.582H611.54L611.339 129.876C607.444 135.114 602.139 139.277 595.423 142.366C588.842 145.321 581.456 146.798 573.263 146.798C563.727 146.798 555.199 144.65 547.677 140.352C540.291 136.054 534.448 130.01 530.15 122.22C525.987 114.296 523.905 105.163 523.905 94.8218C523.905 84.4802 525.987 75.4145 530.15 67.6248C534.448 59.7007 540.291 53.5897 547.677 49.2919C555.199 44.9941 563.727 42.8452 573.263 42.8452C580.918 42.8452 587.902 44.1211 594.215 46.6729C600.527 49.2248 605.631 52.851 609.526 57.5518V3.56055H628.261ZM576.083 129.473C582.53 129.473 588.305 127.996 593.409 125.041C598.513 122.086 602.475 117.99 605.295 112.752C608.115 107.514 609.526 101.537 609.526 94.8218C609.526 88.1065 608.115 82.1299 605.295 76.8919C602.475 71.6539 598.513 67.5576 593.409 64.6029C588.305 61.6481 582.53 60.1707 576.083 60.1707C569.637 60.1707 563.861 61.6481 558.758 64.6029C553.654 67.5576 549.692 71.6539 546.872 76.8919C544.051 82.1299 542.641 88.1065 542.641 94.8218C542.641 101.537 544.051 107.514 546.872 112.752C549.692 117.99 553.654 122.086 558.758 125.041C563.861 127.996 569.637 129.473 576.083 129.473Z" fill="#20025B"/>
<path d="M703.181 146.798C692.839 146.798 683.639 144.582 675.581 140.15C667.657 135.584 661.479 129.339 657.046 121.415C652.749 113.49 650.6 104.626 650.6 94.8218C650.6 85.0175 652.749 76.1532 657.046 68.2291C661.479 60.305 667.657 54.1269 675.581 49.6948C683.639 45.1284 692.839 42.8452 703.181 42.8452C713.522 42.8452 722.655 45.1284 730.579 49.6948C738.503 54.1269 744.614 60.305 748.912 68.2291C753.344 76.1532 755.56 85.0175 755.56 94.8218C755.56 104.626 753.344 113.49 748.912 121.415C744.614 129.339 738.503 135.584 730.579 140.15C722.655 144.582 713.522 146.798 703.181 146.798ZM703.181 129.473C709.762 129.473 715.604 127.928 720.708 124.839C725.811 121.75 729.773 117.587 732.594 112.349C735.414 106.977 736.825 101.134 736.825 94.8218C736.825 88.5094 735.414 82.7342 732.594 77.4963C729.773 72.124 725.811 67.8934 720.708 64.8043C715.604 61.7153 709.762 60.1707 703.181 60.1707C696.465 60.1707 690.556 61.7153 685.452 64.8043C680.349 67.8934 676.387 72.124 673.566 77.4963C670.746 82.7342 669.336 88.5094 669.336 94.8218C669.336 101.134 670.746 106.977 673.566 112.349C676.387 117.587 680.349 121.75 685.452 124.839C690.556 127.928 696.465 129.473 703.181 129.473Z" fill="#20025B"/>
<path d="M840.137 141.359C833.153 144.448 826.102 145.993 818.984 145.993C808.642 145.993 800.785 143.105 795.413 137.33C790.175 131.42 787.556 122.825 787.556 111.543V61.3795H768.015V45.0613H787.556V18.2671L806.09 16.2525V45.0613H836.31V61.3795H806.09V111.543C806.09 117.318 807.299 121.683 809.717 124.638C812.134 127.593 815.962 129.07 821.2 129.07C825.229 129.07 829.728 127.996 834.698 125.847L840.137 141.359Z" fill="#20025B"/>
<path d="M97.7281 45.0613V144.582H81.0069L80.8055 130.48C76.642 135.718 71.5383 139.68 65.4945 142.366C59.585 145.052 53.0712 146.396 45.9529 146.396C33.1938 146.396 22.9865 142.232 15.331 133.905C7.67558 125.578 3.84784 114.363 3.84784 100.261V45.0613H22.5836V99.0525C22.5836 108.588 24.8668 115.975 29.4332 121.213C33.9997 126.451 40.3792 129.07 48.5719 129.07C57.5704 129.07 64.8901 126.182 70.531 120.407C76.1719 114.498 78.9923 107.044 78.9923 98.0452V45.0613H97.7281Z" stroke="#20025B" strokeWidth="6" mask="url(#path-1-outside-1_8877_17195)"/>
<path d="M163.714 146.798C146.926 146.798 132.018 141.695 118.99 131.487L128.459 117.587C132.756 121.482 138.061 124.504 144.374 126.652C150.686 128.801 157.267 129.876 164.117 129.876C171.235 129.876 176.876 128.667 181.04 126.25C185.203 123.832 187.285 120.542 187.285 116.378C187.285 112.349 185.337 109.26 181.442 107.111C177.682 104.962 171.302 103.35 162.304 102.276C135.577 99.0525 122.213 89.1138 122.213 72.4598C122.213 63.5956 126.108 56.4773 133.898 51.1051C141.688 45.5985 151.895 42.8452 164.52 42.8452C179.428 42.8452 192.456 46.8073 203.603 54.7313L194.94 68.4306C186.21 62.2525 176.339 59.1634 165.326 59.1634C157.267 59.1634 151.089 60.305 146.791 62.5883C142.628 64.7372 140.546 67.9605 140.546 72.2583C140.546 76.0189 142.292 78.9737 145.784 81.1226C149.41 83.1372 155.454 84.6817 163.915 85.7561C178.824 87.6364 189.501 90.9941 195.948 95.8291C202.529 100.664 205.819 107.581 205.819 116.579C205.819 122.489 204.073 127.727 200.581 132.293C197.089 136.86 192.12 140.419 185.673 142.971C179.361 145.523 172.041 146.798 163.714 146.798Z" stroke="#20025B" strokeWidth="6" mask="url(#path-1-outside-1_8877_17195)"/>
<path d="M270.91 43.0467C286.892 43.0467 299.382 47.6802 308.381 56.9474C317.38 66.2145 321.879 79.0408 321.879 95.4262C321.879 98.3809 321.812 100.664 321.677 102.276H239.28C240.22 110.871 243.712 117.654 249.756 122.623C255.934 127.458 263.791 129.876 273.327 129.876C279.371 129.876 285.146 128.801 290.653 126.652C296.293 124.504 300.591 121.683 303.546 118.191L315.634 129.674C310.933 135.181 304.755 139.479 297.099 142.568C289.578 145.657 281.52 147.201 272.924 147.201C262.314 147.201 252.98 145.052 244.921 140.755C236.997 136.457 230.819 130.346 226.387 122.422C222.089 114.498 219.94 105.298 219.94 94.8218C219.94 84.7488 222.089 75.8175 226.387 68.0277C230.685 60.1036 236.661 53.9926 244.317 49.6948C251.972 45.2627 260.837 43.0467 270.91 43.0467ZM271.514 59.7678C262.784 59.7678 255.599 62.1182 249.958 66.8189C244.451 71.3853 240.959 77.8992 239.482 86.3605H303.949C303.143 78.3021 299.853 71.8554 294.077 67.0204C288.302 62.1853 280.781 59.7678 271.514 59.7678Z" stroke="#20025B" strokeWidth="6" mask="url(#path-1-outside-1_8877_17195)"/>
<path d="M391.6 43.2481C396.3 43.2481 400.8 43.9868 405.097 45.4642C409.395 46.8072 413.022 48.6875 415.976 51.1051L407.515 66.8189C402.143 63.327 396.502 61.581 390.592 61.581C381.997 61.581 375.08 64.7372 369.842 71.0496C364.738 77.2277 362.186 85.4204 362.186 95.6277V144.582H343.451V45.0613H360.172L360.373 61.7824C364.268 55.47 368.768 50.8364 373.871 47.8817C379.109 44.7927 385.019 43.2481 391.6 43.2481Z" stroke="#20025B" strokeWidth="6" mask="url(#path-1-outside-1_8877_17195)"/>
<path d="M467.478 146.798C450.689 146.798 435.781 141.695 422.753 131.487L432.222 117.587C436.52 121.482 441.825 124.504 448.137 126.652C454.45 128.801 461.031 129.876 467.88 129.876C474.999 129.876 480.64 128.667 484.803 126.25C488.967 123.832 491.048 120.542 491.048 116.378C491.048 112.349 489.101 109.26 485.206 107.111C481.445 104.962 475.066 103.35 466.067 102.276C439.34 99.0525 425.977 89.1138 425.977 72.4598C425.977 63.5956 429.872 56.4773 437.661 51.1051C445.451 45.5985 455.659 42.8452 468.283 42.8452C483.191 42.8452 496.219 46.8073 507.367 54.7313L498.704 68.4306C489.974 62.2525 480.102 59.1634 469.089 59.1634C461.031 59.1634 454.853 60.305 450.555 62.5883C446.391 64.7372 444.31 67.9605 444.31 72.2583C444.31 76.0189 446.056 78.9737 449.548 81.1226C453.174 83.1372 459.218 84.6817 467.679 85.7561C482.587 87.6364 493.264 90.9941 499.711 95.8291C506.292 100.664 509.583 107.581 509.583 116.579C509.583 122.489 507.837 127.727 504.345 132.293C500.853 136.86 495.883 140.419 489.437 142.971C483.124 145.523 475.805 146.798 467.478 146.798Z" stroke="#20025B" strokeWidth="6" mask="url(#path-1-outside-1_8877_17195)"/>
<path d="M628.261 3.56055V144.582H611.54L611.339 129.876C607.444 135.114 602.139 139.277 595.423 142.366C588.842 145.321 581.456 146.798 573.263 146.798C563.727 146.798 555.199 144.65 547.677 140.352C540.291 136.054 534.448 130.01 530.15 122.22C525.987 114.296 523.905 105.163 523.905 94.8218C523.905 84.4802 525.987 75.4145 530.15 67.6248C534.448 59.7007 540.291 53.5897 547.677 49.2919C555.199 44.9941 563.727 42.8452 573.263 42.8452C580.918 42.8452 587.902 44.1211 594.215 46.6729C600.527 49.2248 605.631 52.851 609.526 57.5518V3.56055H628.261ZM576.083 129.473C582.53 129.473 588.305 127.996 593.409 125.041C598.513 122.086 602.475 117.99 605.295 112.752C608.115 107.514 609.526 101.537 609.526 94.8218C609.526 88.1065 608.115 82.1299 605.295 76.8919C602.475 71.6539 598.513 67.5576 593.409 64.6029C588.305 61.6481 582.53 60.1707 576.083 60.1707C569.637 60.1707 563.861 61.6481 558.758 64.6029C553.654 67.5576 549.692 71.6539 546.872 76.8919C544.051 82.1299 542.641 88.1065 542.641 94.8218C542.641 101.537 544.051 107.514 546.872 112.752C549.692 117.99 553.654 122.086 558.758 125.041C563.861 127.996 569.637 129.473 576.083 129.473Z" stroke="#20025B" strokeWidth="6" mask="url(#path-1-outside-1_8877_17195)"/>
<path d="M703.181 146.798C692.839 146.798 683.639 144.582 675.581 140.15C667.657 135.584 661.479 129.339 657.046 121.415C652.749 113.49 650.6 104.626 650.6 94.8218C650.6 85.0175 652.749 76.1532 657.046 68.2291C661.479 60.305 667.657 54.1269 675.581 49.6948C683.639 45.1284 692.839 42.8452 703.181 42.8452C713.522 42.8452 722.655 45.1284 730.579 49.6948C738.503 54.1269 744.614 60.305 748.912 68.2291C753.344 76.1532 755.56 85.0175 755.56 94.8218C755.56 104.626 753.344 113.49 748.912 121.415C744.614 129.339 738.503 135.584 730.579 140.15C722.655 144.582 713.522 146.798 703.181 146.798ZM703.181 129.473C709.762 129.473 715.604 127.928 720.708 124.839C725.811 121.75 729.773 117.587 732.594 112.349C735.414 106.977 736.825 101.134 736.825 94.8218C736.825 88.5094 735.414 82.7342 732.594 77.4963C729.773 72.124 725.811 67.8934 720.708 64.8043C715.604 61.7153 709.762 60.1707 703.181 60.1707C696.465 60.1707 690.556 61.7153 685.452 64.8043C680.349 67.8934 676.387 72.124 673.566 77.4963C670.746 82.7342 669.336 88.5094 669.336 94.8218C669.336 101.134 670.746 106.977 673.566 112.349C676.387 117.587 680.349 121.75 685.452 124.839C690.556 127.928 696.465 129.473 703.181 129.473Z" stroke="#20025B" strokeWidth="6" mask="url(#path-1-outside-1_8877_17195)"/>
<path d="M840.137 141.359C833.153 144.448 826.102 145.993 818.984 145.993C808.642 145.993 800.785 143.105 795.413 137.33C790.175 131.42 787.556 122.825 787.556 111.543V61.3795H768.015V45.0613H787.556V18.2671L806.09 16.2525V45.0613H836.31V61.3795H806.09V111.543C806.09 117.318 807.299 121.683 809.717 124.638C812.134 127.593 815.962 129.07 821.2 129.07C825.229 129.07 829.728 127.996 834.698 125.847L840.137 141.359Z" stroke="#20025B" strokeWidth="6" mask="url(#path-1-outside-1_8877_17195)"/>
</svg>
